{"asset":{"version":"2.0","generator":"THREE.GLTFExporter"},"scenes":[{"name":"AuxScene","nodes":[6]}],"scene":0,"nodes":[{"matrix":[1,0,0,0,0,1,0,0,0,0,1,0,0.20404481887817383,0,-0.6335563659667969,1],"name":"character_bearArmLeft","extras":{"name":"character_bearArmLeft"},"mesh":1},{"matrix":[1,0,0,0,0,1,0,0,0,0,1,0,-0.20404601097106934,0,-0.6335563063621521,1],"name":"character_bearArmRight","extras":{"name":"character_bearArmRight"},"mesh":2},{"name":"Cube1337","mesh":3},{"name":"Cube1337_1","mesh":4},{"matrix":[1,0,0,0,0,1,0,0,0,0,1,0,0,0,-0.7037111520767212,1],"name":"character_bearHead","extras":{"name":"character_bearHead"},"children":[2,3]},{"matrix":[1,0,0,0,0,-1.3435885648505064e-7,0.9999999657714511,0,0,-0.9999999657714511,-1.3435885648505064e-7,0,0,0,0,1],"name":"character_bear","extras":{"name":"character_bear"},"mesh":0,"children":[0,1,4]},{"name":"Scene","children":[5]}],"bufferViews":[{"buffer":0,"byteOffset":0,"byteLength":3732,"target":34962,"byteStride":12},{"buffer":0,"byteOffset":3732,"byteLength":3732,"target":34962,"byteStride":12},{"buffer":0,"byteOffset":7464,"byteLength":2488,"target":34962,"byteStride":8},{"buffer":0,"byteOffset":9952,"byteLength":2568,"target":34963},{"buffer":0,"byteOffset":12520,"byteLength":2472,"target":34962,"byteStride":12},{"buffer":0,"byteOffset":14992,"byteLength":2472,"target":34962,"byteStride":12},{"buffer":0,"byteOffset":17464,"byteLength":1648,"target":34962,"byteStride":8},{"buffer":0,"byteOffset":19112,"byteLength":1956,"target":34963},{"buffer":0,"byteOffset":21068,"byteLength":2712,"target":34962,"byteStride":12},{"buffer":0,"byteOffset":23780,"byteLength":2712,"target":34962,"byteStride":12},{"buffer":0,"byteOffset":26492,"byteLength":1808,"target":34962,"byteStride":8},{"buffer":0,"byteOffset":28300,"byteLength":1956,"target":34963},{"buffer":0,"byteOffset":30256,"byteLength":2256,"target":34962,"byteStride":12},{"buffer":0,"byteOffset":32512,"byteLength":2256,"target":34962,"byteStride":12},{"buffer":0,"byteOffset":34768,"byteLength":1504,"target":34962,"byteStride":8},{"buffer":0,"byteOffset":36272,"byteLength":1188,"target":34963},{"buffer":0,"byteOffset":37460,"byteLength":11280,"target":34962,"byteStride":12},{"buffer":0,"byteOffset":48740,"byteLength":11280,"target":34962,"byteStride":12},{"buffer":0,"byteOffset":60020,"byteLength":7520,"target":34962,"byteStride":8},{"buffer":0,"byteOffset":67540,"byteLength":7200,"target":34963}],"buffers":[{"byteLength":74740,"uri":"data:application/octet-stream;base64,"}],"accessors":[{"bufferView":0,"componentType":5126,"count":311,"max":[0.33807387948036194,0.34999972581863403,6.267252672387258e-8],"min":[-0.33807387948036194,-0.3499997854232788,-0.7255613207817078],"type":"VEC3"},{"bufferView":1,"componentType":5126,"count":311,"max":[0.9999063611030579,0.9999630451202393,0.9999999403953552],"min":[-0.9999063611030579,-0.9999629855155945,-0.9608862996101379],"type":"VEC3"},{"bufferView":2,"componentType":5126,"count":311,"max":[1,0.7500001192092896],"min":[0,0.0833330750465393],"type":"VEC2"},{"bufferView":3,"componentType":5123,"count":1284,"max":[310],"min":[0],"type":"SCALAR"},{"bufferView":4,"componentType":5126,"count":206,"max":[0.26490139961242676,0.09058669954538345,0.47665560245513916],"min":[-0.11533478647470474,-0.09058652073144913,-0.09418356418609619],"type":"VEC3"},{"bufferView":5,"componentType":5126,"count":206,"max":[0.9999358654022217,0.9955893754959106,0.9949941635131836],"min":[-0.9909238815307617,-0.9955893754959106,-0.9478558301925659],"type":"VEC3"},{"bufferView":6,"componentType":5126,"count":206,"max":[0.5459316968917847,0.5837615132331848],"min":[0.4583333730697632,0.08333313465118408],"type":"VEC2"},{"bufferView":7,"componentType":5123,"count":978,"max":[205],"min":[0],"type":"SCALAR"},{"bufferView":8,"componentType":5126,"count":226,"max":[0.11533510684967041,0.09058669209480286,0.4766555428504944],"min":[-0.26490116119384766,-0.09058653563261032,-0.09418362379074097],"type":"VEC3"},{"bufferView":9,"componentType":5126,"count":226,"max":[0.9909239411354065,0.9955893754959106,0.9949941039085388],"min":[-0.9999359250068665,-0.9955893158912659,-0.9478557705879211],"type":"VEC3"},{"bufferView":10,"componentType":5126,"count":226,"max":[1,0.5837615132331848],"min":[0,0.08333313465118408],"type":"VEC2"},{"bufferView":11,"componentType":5123,"count":978,"max":[225],"min":[0],"type":"SCALAR"},{"bufferView":12,"componentType":5126,"count":188,"max":[0.33058083057403564,0.6103495359420776,-0.2641907334327698],"min":[-0.33058077096939087,0.3631858229637146,-0.4932207465171814],"type":"VEC3"},{"bufferView":13,"componentType":5126,"count":188,"max":[0.9833049774169922,0.9970906376838684,0.9682117104530334],"min":[-0.9833047986030579,-0.9999999403953552,-0.9914864301681519],"type":"VEC3"},{"bufferView":14,"componentType":5126,"count":188,"max":[1,1],"min":[-5.960464477539063e-8,0],"type":"VEC2"},{"bufferView":15,"componentType":5123,"count":594,"max":[187],"min":[0],"type":"SCALAR"},{"bufferView":16,"componentType":5126,"count":940,"max":[0.5510091781616211,0.5645328164100647,0],"min":[-0.5532671809196472,-0.49999967217445374,-0.9339144229888916],"type":"VEC3"},{"bufferView":17,"componentType":5126,"count":940,"max":[1,1,1],"min":[-1,-1,-1],"type":"VEC3"},{"bufferView":18,"componentType":5126,"count":940,"max":[1,1],"min":[0,0],"type":"VEC2"},{"bufferView":19,"componentType":5123,"count":3600,"max":[939],"min":[0],"type":"SCALAR"}],"materials":[{"pbrMetallicRoughness":{"baseColorFactor":[0.3254901960784314,0.09803921568627451,0.058823529411764705,0.5],"metallicFactor":0,"roughnessFactor":0.4000000059604645},"alphaMode":"BLEND","name":"BrownDark.036"},{"pbrMetallicRoughness":{"baseColorFactor":[0.0196078431372549,0.03137254901960784,0.03529411764705882,0.5],"metallicFactor":0,"roughnessFactor":0.5},"alphaMode":"BLEND","name":"Black.025"}],"meshes":[{"primitives":[{"mode":4,"attributes":{"POSITION":0,"NORMAL":1,"TEXCOORD_0":2},"indices":3,"material":0}]},{"primitives":[{"mode":4,"attributes":{"POSITION":4,"NORMAL":5,"TEXCOORD_0":6},"indices":7,"material":0}]},{"primitives":[{"mode":4,"attributes":{"POSITION":8,"NORMAL":9,"TEXCOORD_0":10},"indices":11,"material":0}]},{"primitives":[{"mode":4,"attributes":{"POSITION":12,"NORMAL":13,"TEXCOORD_0":14},"indices":15,"material":1}]},{"primitives":[{"mode":4,"attributes":{"POSITION":16,"NORMAL":17,"TEXCOORD_0":18},"indices":19,"material":0}]}]}