{
    "asset" : {
        "generator" : "Khronos glTF Blender I/O v1.5.17",
        "version" : "2.0"
    },
    "scene" : 0,
    "scenes" : [
        {
            "name" : "Scene",
            "nodes" : [
                3
            ]
        }
    ],
    "nodes" : [
        {
            "mesh" : 0,
            "name" : "character_bearArmLeft",
            "translation" : [
                0.20404481887817383,
                0,
                -0.6335563659667969
            ]
        },
        {
            "mesh" : 1,
            "name" : "character_bearArmRight",
            "translation" : [
                -0.20404601097106934,
                0,
                -0.6335563063621521
            ]
        },
        {
            "mesh" : 2,
            "name" : "character_bearHead",
            "translation" : [
                0,
                0,
                -0.7037111520767212
            ]
        },
        {
            "children" : [
                0,
                1,
                2
            ],
            "mesh" : 3,
            "name" : "character_bear",
            "rotation" : [
                0.7071068286895752,
                0,
                0,
                0.7071067094802856
            ]
        }
    ],
    "materials" : [
        {
            "doubleSided" : true,
            "name" : "BrownDark.036",
            "pbrMetallicRoughness" : {
                "baseColorFactor" : [
                    0.32694560289382935,
                    0.10152623057365417,
                    0.05927089974284172,
                    1
                ],
                "metallicFactor" : 0,
                "roughnessFactor" : 0.4000000059604645
            }
        },
        {
            "doubleSided" : true,
            "name" : "Black.025",
            "pbrMetallicRoughness" : {
                "baseColorFactor" : [
                    0.019794002175331116,
                    0.03207586705684662,
                    0.037408243864774704,
                    1
                ],
                "metallicFactor" : 0,
                "roughnessFactor" : 0.5
            }
        }
    ],
    "meshes" : [
        {
            "name" : "Cube.024",
            "primitives" : [
                {
                    "attributes" : {
                        "POSITION" : 0,
                        "NORMAL" : 1,
                        "TEXCOORD_0" : 2
                    },
                    "indices" : 3,
                    "material" : 0
                }
            ]
        },
        {
            "name" : "Cube.023",
            "primitives" : [
                {
                    "attributes" : {
                        "POSITION" : 4,
                        "NORMAL" : 5,
                        "TEXCOORD_0" : 6
                    },
                    "indices" : 7,
                    "material" : 0
                }
            ]
        },
        {
            "name" : "Cube.1337",
            "primitives" : [
                {
                    "attributes" : {
                        "POSITION" : 8,
                        "NORMAL" : 9,
                        "TEXCOORD_0" : 10
                    },
                    "indices" : 11,
                    "material" : 1
                },
                {
                    "attributes" : {
                        "POSITION" : 12,
                        "NORMAL" : 13,
                        "TEXCOORD_0" : 14
                    },
                    "indices" : 15,
                    "material" : 0
                }
            ]
        },
        {
            "name" : "Cube.022",
            "primitives" : [
                {
                    "attributes" : {
                        "POSITION" : 16,
                        "NORMAL" : 17,
                        "TEXCOORD_0" : 18
                    },
                    "indices" : 19,
                    "material" : 0
                }
            ]
        }
    ],
    "accessors" : [
        {
            "bufferView" : 0,
            "componentType" : 5126,
            "count" : 206,
            "max" : [
                0.26490139961242676,
                0.09058669954538345,
                0.47665560245513916
            ],
            "min" : [
                -0.11533478647470474,
                -0.09058652073144913,
                -0.09418356418609619
            ],
            "type" : "VEC3"
        },
        {
            "bufferView" : 1,
            "componentType" : 5126,
            "count" : 206,
            "type" : "VEC3"
        },
        {
            "bufferView" : 2,
            "componentType" : 5126,
            "count" : 206,
            "type" : "VEC2"
        },
        {
            "bufferView" : 3,
            "componentType" : 5123,
            "count" : 978,
            "type" : "SCALAR"
        },
        {
            "bufferView" : 4,
            "componentType" : 5126,
            "count" : 226,
            "max" : [
                0.11533510684967041,
                0.09058669209480286,
                0.4766555428504944
            ],
            "min" : [
                -0.26490116119384766,
                -0.09058653563261032,
                -0.09418362379074097
            ],
            "type" : "VEC3"
        },
        {
            "bufferView" : 5,
            "componentType" : 5126,
            "count" : 226,
            "type" : "VEC3"
        },
        {
            "bufferView" : 6,
            "componentType" : 5126,
            "count" : 226,
            "type" : "VEC2"
        },
        {
            "bufferView" : 7,
            "componentType" : 5123,
            "count" : 978,
            "type" : "SCALAR"
        },
        {
            "bufferView" : 8,
            "componentType" : 5126,
            "count" : 188,
            "max" : [
                0.33058083057403564,
                0.6103495359420776,
                -0.2641907334327698
            ],
            "min" : [
                -0.33058077096939087,
                0.3631858229637146,
                -0.4932207465171814
            ],
            "type" : "VEC3"
        },
        {
            "bufferView" : 9,
            "componentType" : 5126,
            "count" : 188,
            "type" : "VEC3"
        },
        {
            "bufferView" : 10,
            "componentType" : 5126,
            "count" : 188,
            "type" : "VEC2"
        },
        {
            "bufferView" : 11,
            "componentType" : 5123,
            "count" : 594,
            "type" : "SCALAR"
        },
        {
            "bufferView" : 12,
            "componentType" : 5126,
            "count" : 940,
            "max" : [
                0.5510091781616211,
                0.5645328164100647,
                0
            ],
            "min" : [
                -0.5532671809196472,
                -0.49999967217445374,
                -0.9339144229888916
            ],
            "type" : "VEC3"
        },
        {
            "bufferView" : 13,
            "componentType" : 5126,
            "count" : 940,
            "type" : "VEC3"
        },
        {
            "bufferView" : 14,
            "componentType" : 5126,
            "count" : 940,
            "type" : "VEC2"
        },
        {
            "bufferView" : 15,
            "componentType" : 5123,
            "count" : 3600,
            "type" : "SCALAR"
        },
        {
            "bufferView" : 16,
            "componentType" : 5126,
            "count" : 311,
            "max" : [
                0.33807387948036194,
                0.34999972581863403,
                6.267252672387258e-08
            ],
            "min" : [
                -0.33807387948036194,
                -0.3499997854232788,
                -0.7255613207817078
            ],
            "type" : "VEC3"
        },
        {
            "bufferView" : 17,
            "componentType" : 5126,
            "count" : 311,
            "type" : "VEC3"
        },
        {
            "bufferView" : 18,
            "componentType" : 5126,
            "count" : 311,
            "type" : "VEC2"
        },
        {
            "bufferView" : 19,
            "componentType" : 5123,
            "count" : 1284,
            "type" : "SCALAR"
        }
    ],
    "bufferViews" : [
        {
            "buffer" : 0,
            "byteLength" : 2472,
            "byteOffset" : 0
        },
        {
            "buffer" : 0,
            "byteLength" : 2472,
            "byteOffset" : 2472
        },
        {
            "buffer" : 0,
            "byteLength" : 1648,
            "byteOffset" : 4944
        },
        {
            "buffer" : 0,
            "byteLength" : 1956,
            "byteOffset" : 6592
        },
        {
            "buffer" : 0,
            "byteLength" : 2712,
            "byteOffset" : 8548
        },
        {
            "buffer" : 0,
            "byteLength" : 2712,
            "byteOffset" : 11260
        },
        {
            "buffer" : 0,
            "byteLength" : 1808,
            "byteOffset" : 13972
        },
        {
            "buffer" : 0,
            "byteLength" : 1956,
            "byteOffset" : 15780
        },
        {
            "buffer" : 0,
            "byteLength" : 2256,
            "byteOffset" : 17736
        },
        {
            "buffer" : 0,
            "byteLength" : 2256,
            "byteOffset" : 19992
        },
        {
            "buffer" : 0,
            "byteLength" : 1504,
            "byteOffset" : 22248
        },
        {
            "buffer" : 0,
            "byteLength" : 1188,
            "byteOffset" : 23752
        },
        {
            "buffer" : 0,
            "byteLength" : 11280,
            "byteOffset" : 24940
        },
        {
            "buffer" : 0,
            "byteLength" : 11280,
            "byteOffset" : 36220
        },
        {
            "buffer" : 0,
            "byteLength" : 7520,
            "byteOffset" : 47500
        },
        {
            "buffer" : 0,
            "byteLength" : 7200,
            "byteOffset" : 55020
        },
        {
            "buffer" : 0,
            "byteLength" : 3732,
            "byteOffset" : 62220
        },
        {
            "buffer" : 0,
            "byteLength" : 3732,
            "byteOffset" : 65952
        },
        {
            "buffer" : 0,
            "byteLength" : 2488,
            "byteOffset" : 69684
        },
        {
            "buffer" : 0,
            "byteLength" : 2568,
            "byteOffset" : 72172
        }
    ],
    "buffers" : [
        {
            "byteLength" : 74740,
            "uri" : "data:application/octet-stream;base64,"
        }
    ]
}
